<svg xmlns="http://www.w3.org/2000/svg" width="1060" height="620" viewBox="0 0 1060 620"><rect width="100%" height="100%" fill="white"/><text x="530.0" y="38" text-anchor="middle" font-family="Manrope, Arial" font-size="22" font-weight="700" fill="#111827">Baseline Comparison: Retrieval vs Ranking Relevance</text><rect x="260" y="540" width="720" height="1" fill="#e5e7eb"/><text x="80" y="106.0" font-family="Manrope, Arial" font-size="14" fill="#111827">Keyword matching</text><rect x="260" y="88.0" width="469.45" height="24.00" rx="7" fill="#2563eb"/><rect x="260" y="119.0" width="254.42" height="24.00" rx="7" fill="#10b981"/><text x="737.4467908688105" y="100.0" font-family="Manrope, Arial" font-size="12" fill="#374151">0.419</text><text x="522.4150493612832" y="131.0" font-family="Manrope, Arial" font-size="12" fill="#374151">0.227</text><text x="80" y="186.0" font-family="Manrope, Arial" font-size="14" fill="#111827">BM25</text><rect x="260" y="168.0" width="610.99" height="24.00" rx="7" fill="#2563eb"/><rect x="260" y="199.0" width="448.94" height="24.00" rx="7" fill="#10b981"/><text x="878.9916306065867" y="180.0" font-family="Manrope, Arial" font-size="12" fill="#374151">0.546</text><text x="716.943590806623" y="211.0" font-family="Manrope, Arial" font-size="12" fill="#374151">0.401</text><text x="80" y="266.0" font-family="Manrope, Arial" font-size="14" fill="#111827">Skills only</text><rect x="260" y="248.0" width="351.46" height="24.00" rx="7" fill="#2563eb"/><rect x="260" y="279.0" width="120.20" height="24.00" rx="7" fill="#10b981"/><text x="619.4647734045034" y="260.0" font-family="Manrope, Arial" font-size="12" fill="#374151">0.314</text><text x="388.2021091907859" y="291.0" font-family="Manrope, Arial" font-size="12" fill="#374151">0.107</text><text x="80" y="346.0" font-family="Manrope, Arial" font-size="14" fill="#111827">Semantic only</text><rect x="260" y="328.0" width="720.00" height="24.00" rx="7" fill="#2563eb"/><rect x="260" y="359.0" width="455.73" height="24.00" rx="7" fill="#10b981"/><text x="988.0" y="340.0" font-family="Manrope, Arial" font-size="12" fill="#374151">0.643</text><text x="723.734459617029" y="371.0" font-family="Manrope, Arial" font-size="12" fill="#374151">0.407</text><text x="80" y="426.0" font-family="Manrope, Arial" font-size="14" fill="#111827">Hybrid system</text><rect x="260" y="408.0" width="681.23" height="24.00" rx="7" fill="#2563eb"/><rect x="260" y="439.0" width="447.32" height="24.00" rx="7" fill="#10b981"/><text x="949.2323478350996" y="420.0" font-family="Manrope, Arial" font-size="12" fill="#374151">0.609</text><text x="715.3204985360039" y="451.0" font-family="Manrope, Arial" font-size="12" fill="#374151">0.400</text><rect x="800" y="60" width="14" height="14" fill="#2563eb"/><text x="820" y="72" font-family="Manrope, Arial" font-size="12" fill="#374151">Retrieval relevance</text><rect x="800" y="84" width="14" height="14" fill="#10b981"/><text x="820" y="96" font-family="Manrope, Arial" font-size="12" fill="#374151">Ranking relevance</text></svg>