<svg xmlns="http://www.w3.org/2000/svg" width="900" height="520" viewBox="0 0 900 520"><rect width="100%" height="100%" fill="white"/><text x="450.0" y="32" text-anchor="middle" font-family="Manrope, Arial" font-size="22" font-weight="700" fill="#111827">Semantic Score Distribution (Top 100)</text><rect x="72.0" y="315.45454545454544" width="59.33" height="114.55" rx="5" fill="#0ea5e9" opacity="0.85"/><text x="70.0" y="500" font-family="Manrope, Arial" font-size="11" fill="#6b7280">0.29</text><rect x="135.33333333333334" y="364.54545454545456" width="59.33" height="65.45" rx="5" fill="#0ea5e9" opacity="0.85"/><rect x="198.66666666666669" y="119.09090909090907" width="59.33" height="310.91" rx="5" fill="#0ea5e9" opacity="0.85"/><rect x="262.0" y="70.0" width="59.33" height="360.00" rx="5" fill="#0ea5e9" opacity="0.85"/><text x="260.0" y="500" font-family="Manrope, Arial" font-size="11" fill="#6b7280">0.37</text><rect x="325.33333333333337" y="217.27272727272725" width="59.33" height="212.73" rx="5" fill="#0ea5e9" opacity="0.85"/><rect x="388.6666666666667" y="266.3636363636364" width="59.33" height="163.64" rx="5" fill="#0ea5e9" opacity="0.85"/><rect x="452.0" y="331.8181818181818" width="59.33" height="98.18" rx="5" fill="#0ea5e9" opacity="0.85"/><text x="450.0" y="500" font-family="Manrope, Arial" font-size="11" fill="#6b7280">0.46</text><rect x="515.3333333333334" y="364.54545454545456" width="59.33" height="65.45" rx="5" fill="#0ea5e9" opacity="0.85"/><rect x="578.6666666666667" y="331.8181818181818" width="59.33" height="98.18" rx="5" fill="#0ea5e9" opacity="0.85"/><rect x="642.0" y="364.54545454545456" width="59.33" height="65.45" rx="5" fill="#0ea5e9" opacity="0.85"/><text x="640.0" y="500" font-family="Manrope, Arial" font-size="11" fill="#6b7280">0.54</text><rect x="705.3333333333334" y="380.90909090909093" width="59.33" height="49.09" rx="5" fill="#0ea5e9" opacity="0.85"/><rect x="768.6666666666667" y="397.27272727272725" width="59.33" height="32.73" rx="5" fill="#0ea5e9" opacity="0.85"/></svg>